
<svg version="1.1" id="Layer_1" xmlns="http://www.w3.org/2000/svg" xmlns:xlink="http://www.w3.org/1999/xlink" x="0px" y="0px" width="100%" viewBox="0 0 562 458" enable-background="new 0 0 562 458" xml:space="preserve">

<path fill="#272826" opacity="1.000000" stroke="#00000" stroke-width="3" d="
M64.531342,1.000000 
	C65.000000,11.233020 65.645050,21.518694 64.815292,31.683983 
	C64.014610,41.493057 61.543652,51.156120 60.110191,60.927879 
	C59.521534,64.940720 58.720959,69.345665 59.747002,73.099289 
	C64.309921,89.792038 70.090706,105.976875 81.068214,119.875557 
	C83.942520,123.514709 86.170105,124.645821 89.979599,122.021507 
	C91.340439,121.084045 92.675674,119.929298 94.201935,119.471107 
	C95.349495,119.126617 96.783394,119.735931 97.985321,120.515320 
	C82.695656,129.813660 77.101334,144.651825 72.608871,160.485382 
	C72.244972,161.447876 72.074440,162.243469 71.728691,163.309662 
	C71.302002,164.820999 71.050522,166.061752 70.617004,167.474579 
	C70.299339,168.427429 70.163719,169.208191 69.864349,170.228149 
	C69.677795,171.032852 69.655006,171.598373 69.440002,172.343002 
	C69.147766,173.355148 69.047752,174.188187 68.787277,175.260010 
	C68.624519,176.057510 68.622231,176.616241 68.411568,177.441681 
	C68.100349,178.808441 67.997498,179.908478 67.712639,181.388550 
	C67.465378,182.880341 67.400131,183.992111 67.168808,185.395721 
	C66.949707,186.795166 66.896690,187.902802 66.665237,189.405457 
	C66.435333,191.234512 66.383865,192.668564 66.180420,194.438705 
	C65.970772,196.519745 65.913109,198.264679 65.687004,200.434906 
	C65.444862,203.604050 65.371155,206.347931 65.158295,209.460434 
	C64.945862,213.223007 64.872566,216.616928 64.640030,220.452911 
	C64.413940,226.291840 64.347099,231.688705 64.154350,237.465027 
	C63.949268,248.899918 63.870090,259.955353 63.643696,271.418549 
	C63.352383,273.550476 63.208286,275.274658 63.064194,276.998840 
	C61.233036,277.975861 59.029339,278.583618 57.633350,279.991943 
	C50.501476,287.187103 43.589855,294.600159 36.570824,301.907837 
	C35.307243,303.223389 34.100216,304.816528 32.526493,305.571655 
	C26.223768,308.595734 25.018723,314.346893 23.926275,320.348145 
	C23.519182,322.584412 22.516958,324.721161 21.707838,326.873901 
	C18.582956,335.187897 15.318716,343.452087 12.368351,351.827087 
	C11.742349,353.604095 11.833225,355.855530 12.254409,357.740845 
	C14.023649,365.660187 15.653816,373.648712 18.129019,381.356903 
	C19.453150,385.480499 22.314922,389.132507 24.621325,392.912811 
	C27.463648,397.571472 30.554640,402.079742 33.352089,406.764160 
	C38.709892,415.735901 44.383057,424.560883 49.079369,433.873352 
	C53.009224,441.666016 55.733437,450.066650 58.995766,458.599030 
	C39.681255,459.000000 20.362509,459.000000 1.049452,459.000000 
	C1.055141,306.333313 1.055141,153.666656 1.055141,1.000000 
	C22.094416,1.000000 43.078548,1.000000 64.531342,1.000000 
z" data-index="1" style="visibility: hidden; opacity: 1;"></path>
<path fill="#0F1527" opacity="1.000000" stroke="#0F1527" d="
M64.280258,237.085587 
	C64.347099,231.688705 64.413940,226.291840 64.905151,220.223007 
	C65.318825,216.064636 65.308144,212.578217 65.297455,209.091797 
	C65.371155,206.347931 65.444862,203.604050 65.924469,200.237213 
	C66.331039,197.777023 66.331718,195.939819 66.332397,194.102600 
	C66.383865,192.668564 66.435333,191.234512 66.887558,189.245178 
	C67.303841,187.494553 67.319366,186.299210 67.334892,185.103882 
	C67.400131,183.992111 67.465378,182.880341 67.958290,181.153381 
	C68.463951,179.417114 68.541946,178.296036 68.619942,177.174973 
	C68.622231,176.616241 68.624519,176.057510 69.019089,174.955505 
	C69.484993,173.662781 69.558601,172.913345 69.632217,172.163910 
	C69.655006,171.598373 69.677795,171.032852 70.083351,169.941925 
	C70.577087,168.711853 70.688065,168.007172 70.799049,167.302490 
	C71.050522,166.061752 71.302002,164.820999 71.967468,163.026184 
	C72.521713,161.754227 72.661972,161.036331 72.802231,160.318451 
	C77.101334,144.651825 82.695656,129.813660 98.091858,120.871162 
	C99.381874,120.312958 100.460861,119.993584 102.259727,119.726624 
	C103.660408,119.498589 104.341194,119.218132 105.021988,118.937675 
	C105.549316,118.762650 106.076637,118.587624 107.288345,118.592651 
	C108.995560,118.477333 110.018410,118.181946 111.041260,117.886566 
	C115.460670,117.672195 119.880081,117.457825 125.004761,117.490944 
	C126.289085,117.384331 126.868149,117.030220 127.447205,116.676117 
	C126.520607,116.157768 125.594002,115.639435 124.667404,115.121101 
	C119.875076,112.275620 114.763405,109.845490 110.376587,106.472603 
	C105.601723,102.801338 105.688438,98.578079 110.443802,94.992409 
	C114.067680,92.259895 118.371185,90.428719 122.893791,88.366982 
	C123.948250,88.279251 124.481262,88.021088 125.014282,87.762939 
	C125.775108,87.545631 126.535942,87.328323 127.973495,87.359627 
	C130.437958,87.355118 132.225693,87.101997 134.013428,86.848877 
	C147.707779,86.738510 161.402115,86.628151 175.702698,86.893753 
	C177.512451,87.266632 178.715973,87.263557 179.919510,87.260483 
	C181.029480,87.324226 182.139435,87.387970 183.719055,87.834457 
	C184.767288,88.226067 185.345886,88.234932 185.924469,88.243805 
	C190.016617,91.022499 194.108765,93.801201 198.183350,97.462440 
	C198.193436,99.479172 198.221100,100.613380 198.248749,101.747589 
	C195.241974,104.558960 192.412918,107.600113 189.170975,110.107430 
	C186.674393,112.038284 183.658829,113.298080 180.981415,115.452148 
	C181.699554,116.115906 182.310303,116.183784 182.921051,116.251663 
	C186.676559,116.212357 190.432083,116.173065 194.907532,116.384323 
	C197.089020,116.393173 198.550552,116.151474 200.012085,115.909775 
	C201.098145,115.664330 202.184189,115.418892 203.882324,115.384544 
	C205.333664,115.363693 206.172913,115.131752 207.012161,114.899811 
	C208.409561,114.624733 209.806946,114.349655 211.789093,114.269180 
	C212.920624,114.209877 213.467392,113.955963 214.014160,113.702042 
	C214.459061,113.519966 214.903976,113.337891 215.878387,113.327545 
	C216.943161,113.208145 217.478439,112.917023 218.013733,112.625900 
	C232.992462,108.392960 244.290924,98.626335 254.998306,87.988846 
	C263.723755,79.320343 272.242767,70.436539 281.152832,61.963211 
	C292.887451,50.803764 307.355835,44.882019 323.156372,43.211048 
	C344.933655,40.908009 366.726379,41.717846 388.278900,46.216511 
	C400.161194,48.696697 409.797211,54.770233 417.552948,64.003448 
	C422.588501,69.998314 427.576202,76.036186 432.728943,81.929192 
	C444.753998,95.681870 461.633331,100.475166 478.054962,105.807144 
	C487.526093,108.882339 497.391998,110.740654 507.078125,113.155090 
	C519.724304,116.307381 528.700745,123.616661 533.602051,135.920532 
	C541.160706,154.895142 543.698547,174.852692 545.317566,194.956833 
	C549.327576,244.749481 547.051025,294.533508 544.615356,344.302582 
	C544.082214,355.195679 542.701660,366.050293 542.275330,376.944702 
	C541.942627,385.445709 538.146973,390.798828 530.442017,394.202362 
	C519.031677,399.242676 507.119263,402.000092 494.785736,403.075073 
	C488.483795,403.624390 482.141754,403.713409 475.101959,403.722290 
	C472.926147,403.616577 471.466187,403.799011 470.006256,403.981445 
	C461.972260,404.050964 453.938232,404.120483 445.188843,403.864685 
	C443.001007,403.633575 441.528534,403.727814 440.056091,403.822021 
	C417.785614,402.699493 395.481201,402.021759 373.254456,400.325958 
	C352.153046,398.715973 331.062225,395.844574 311.308655,387.840973 
	C271.699219,371.792450 240.903885,346.373840 226.432617,304.084534 
	C226.292053,303.032501 226.011688,302.509186 225.731323,301.985870 
	C225.219421,300.549652 224.707504,299.113464 224.357559,297.136536 
	C224.266205,296.059265 224.012878,295.522736 223.759583,294.986206 
	C223.209503,292.900360 222.659409,290.814514 222.325592,288.126831 
	C222.264694,286.678619 221.987518,285.832214 221.710358,284.985809 
	C221.479889,283.916473 221.249420,282.847137 221.226303,281.221161 
	C221.245850,280.105865 221.058060,279.547241 220.870270,278.988586 
	C220.578812,276.608185 220.287354,274.227814 220.283890,271.054749 
	C220.417648,264.186432 220.263428,258.110748 220.109192,252.035049 
	C220.200638,249.631348 220.292084,247.227661 220.802246,244.285370 
	C221.210495,242.850281 221.200043,241.953796 221.189590,241.057297 
	C221.223175,240.273315 221.256744,239.489319 221.712616,238.238556 
	C222.161087,236.869415 222.187256,235.967041 222.213409,235.064682 
	C226.077164,224.171585 228.933609,212.782394 234.005463,202.484283 
	C246.154480,177.816284 264.959991,159.173508 289.611359,146.653320 
	C290.143188,147.756927 290.207642,148.223938 290.272064,148.690933 
	C270.905060,159.637283 255.910980,175.264297 243.636993,193.477982 
	C238.866806,200.556580 235.671951,208.696793 231.288544,216.814377 
	C230.457901,218.823822 230.098221,220.372330 229.738541,221.920822 
	C228.986679,225.038925 228.234818,228.157043 227.054504,231.851349 
	C226.550735,233.229355 226.475418,234.031158 226.400101,234.832977 
	C226.386826,235.391068 226.373550,235.949173 226.016373,236.886047 
	C225.677444,237.811203 225.682419,238.357590 225.687393,238.903961 
	C225.567780,240.056183 225.448166,241.208405 224.992661,242.822113 
	C224.687119,243.829575 224.717453,244.375549 224.747787,244.921524 
	C224.597519,246.701981 224.447250,248.482437 223.956146,250.819473 
	C223.664688,252.225952 223.714035,253.075867 223.763382,253.925766 
	C223.823364,261.359833 223.883347,268.793884 223.713089,276.831848 
	C223.647903,277.954681 223.812973,278.473633 223.978027,278.992584 
	C224.784973,283.149841 225.591904,287.307098 226.301239,292.155792 
	C226.539688,293.569214 226.875748,294.291229 227.211792,295.013214 
	C231.793961,308.433929 236.987778,321.572479 245.282669,333.230042 
	C264.685760,360.499023 291.209229,377.733582 322.735352,387.714294 
	C344.823578,394.707123 367.730042,397.185028 390.705078,397.847656 
	C422.339935,398.759979 454.010406,398.947571 485.658569,398.662018 
	C500.568512,398.527527 515.609680,397.682648 529.513428,390.737823 
	C535.553772,387.720642 539.463867,384.105896 539.447998,376.766479 
	C539.432190,369.454803 540.325439,362.141174 541.111328,354.212402 
	C541.307556,352.738647 541.212585,351.880859 541.117554,351.023102 
	C541.335022,344.298340 541.552429,337.573608 542.087708,330.154816 
	C542.316589,327.649597 542.227600,325.838440 542.138672,324.027252 
	C542.342407,315.644653 542.546143,307.262024 543.078491,298.140076 
	C543.319092,294.610016 543.231018,291.819305 543.143005,289.028564 
	C543.337402,272.103485 543.613464,255.178741 543.686157,238.253143 
	C543.715332,231.454834 543.298096,224.654602 543.304626,217.191895 
	C543.332886,215.681747 543.140564,214.834976 542.948242,213.988205 
	C542.654480,210.276474 542.360718,206.564728 542.292236,202.189941 
	C542.325195,200.680176 542.132751,199.833450 541.940308,198.986740 
	C539.624023,183.535141 537.929749,167.953278 534.732727,152.686111 
	C533.100281,144.890579 529.538208,137.211731 525.483276,130.278473 
	C519.463440,119.985634 509.260132,116.172592 496.785706,115.393425 
	C502.649353,123.572548 508.471771,131.164673 504.674683,141.375259 
	C502.588257,146.985870 498.493927,150.833435 493.366882,153.548996 
	C482.442902,159.334946 468.059937,155.227295 461.878418,144.712357 
	C455.074219,133.138260 459.483582,122.351349 476.451416,110.468063 
	C472.825012,108.807701 469.666321,107.226082 466.403564,105.900627 
	C461.950378,104.091576 457.439941,102.416245 452.915100,100.792091 
	C441.214752,96.592361 432.530914,88.703606 424.888763,79.110428 
	C419.022308,71.746284 412.814819,64.444969 405.715271,58.326946 
	C397.531891,51.275032 386.719971,49.371780 376.335846,48.343678 
	C361.459503,46.870811 346.436798,45.824249 331.511322,46.156364 
	C311.234680,46.607559 293.263672,54.203468 278.611298,68.386749 
	C269.672913,77.038948 261.721497,86.702431 252.948624,95.536156 
	C243.567688,104.982178 232.823990,112.459145 219.071899,115.528687 
	C218.027435,115.624565 217.507828,115.866211 216.988205,116.107849 
	C214.564529,116.688980 212.140854,117.270111 209.112167,117.632263 
	C207.666885,117.659111 206.826599,117.904938 205.986328,118.150772 
	C203.594269,118.422386 201.202225,118.694016 198.136734,118.698563 
	C196.304413,118.667908 195.145508,118.904335 193.986618,119.140755 
	C189.604019,119.412964 185.221420,119.685173 180.055115,119.669388 
	C176.509674,119.654648 173.747971,119.927895 170.986252,120.201141 
	C157.609650,120.466286 144.233032,120.731422 130.099228,120.707726 
	C127.223427,120.673378 125.104820,120.927864 122.986221,121.182343 
	C120.269867,121.445122 117.553505,121.707901 114.237579,121.746735 
	C113.088058,121.724022 112.538109,121.925240 111.988152,122.126450 
	C110.598457,122.422081 109.208763,122.717712 107.238091,122.797600 
	C106.099991,122.815788 105.542877,123.049721 104.985764,123.283661 
	C104.548622,123.492279 104.111473,123.700897 102.984497,124.060715 
	C95.825363,126.283676 91.180244,130.547882 87.304230,136.025940 
	C79.829033,146.590805 76.558327,158.771820 73.092987,171.079163 
	C72.877098,171.766907 72.860168,172.361389 72.888458,173.346542 
	C72.734810,174.486725 72.535957,175.236252 72.105240,176.106140 
	C71.840973,177.130371 71.808594,178.034210 71.833618,179.352676 
	C71.648315,180.840347 71.405602,181.913422 70.951324,183.123169 
	C70.743568,184.150070 70.747375,185.040298 70.815857,186.357132 
	C70.634583,188.184845 70.388641,189.585938 69.932693,191.128021 
	C69.748131,192.160004 69.773560,193.050995 69.874771,194.383286 
	C69.675354,196.878830 69.400154,198.933105 68.896233,201.174850 
	C68.685844,202.881760 68.704178,204.401184 68.813591,206.337982 
	C68.648407,209.486725 68.392151,212.218124 67.882309,215.237946 
	C67.658966,217.990494 67.689209,220.454590 67.822083,223.372086 
	C67.649780,230.204819 67.374840,236.584167 66.838501,243.290649 
	C66.391968,244.416443 66.047340,245.214691 66.045349,246.013794 
	C66.008636,260.786804 65.986656,275.560028 66.056038,290.332794 
	C66.061852,291.568634 66.740852,292.801300 67.242691,294.478912 
	C67.583504,300.614899 67.788719,306.307404 67.993935,311.999939 
	C67.984337,317.725372 67.974739,323.450836 67.656891,329.983643 
	C67.606247,334.542358 67.863861,338.293640 68.121475,342.044952 
	C68.387474,345.771545 68.653458,349.498138 68.654190,353.918884 
	C68.643631,356.079895 68.898315,357.546783 69.152992,359.013641 
	C69.393028,360.422363 69.633072,361.831055 69.647461,363.867859 
	C69.699440,365.335571 69.977066,366.175140 70.254684,367.014740 
	C70.758438,368.777374 71.262192,370.539978 71.436836,372.864685 
	C70.468521,373.745483 69.829315,374.064270 69.190109,374.383057 
	C68.913078,374.271576 68.766479,374.066772 68.827095,373.149933 
	C67.714790,368.019073 66.525688,363.506958 65.336578,358.994812 
	C65.252083,357.579376 65.167587,356.163910 65.338058,354.071594 
	C65.310341,351.925049 65.027657,350.455383 64.744972,348.985718 
	C64.509911,346.591888 64.274841,344.198059 64.332352,341.023193 
	C64.338905,336.823547 64.052887,333.404938 63.766872,329.986298 
	C63.591831,315.442230 63.409363,300.898254 63.248207,286.354034 
	C63.217041,283.541260 63.269211,280.727539 63.173565,277.456543 
	C63.208286,275.274658 63.352383,273.550476 63.915298,271.181152 
	C64.316162,259.385864 64.298203,248.235718 64.280258,237.085587 
M165.759796,113.365952 
	C174.278870,110.185211 182.991852,107.429398 191.243851,103.663437 
	C196.149124,101.424828 195.981995,98.230179 191.164307,95.862358 
	C187.510590,94.066597 183.376862,93.044472 179.342865,92.275421 
	C173.966537,91.250458 168.479767,90.804794 162.570740,89.644470 
	C161.379028,89.767624 160.187302,89.890778 158.071854,90.180069 
	C151.708694,90.102859 145.345535,90.025642 138.612213,89.571350 
	C137.735718,89.771713 136.859238,89.972069 135.154694,90.512596 
	C128.920975,92.073677 122.476204,93.078911 116.509865,95.344223 
	C109.868668,97.865776 109.780869,101.877533 115.675858,106.036430 
	C117.155075,107.080009 118.743401,108.113464 120.439194,108.678886 
	C125.915634,110.504898 131.465500,112.110695 137.200470,114.183022 
	C137.793594,114.144104 138.386719,114.105186 139.858963,113.924652 
	C141.901337,114.217140 143.943710,114.509628 146.365387,115.283623 
	C148.248962,115.141632 150.132538,114.999641 152.889236,114.564560 
	C156.268753,114.404076 159.648285,114.243591 163.323181,114.404266 
	C163.887650,114.193390 164.452133,113.982513 165.759796,113.365952 
M493.400452,120.088600 
	C489.947937,117.991943 486.632050,114.433281 483.015228,114.095322 
	C474.852570,113.332581 464.921265,122.086418 463.030029,130.233566 
	C461.034576,138.829620 465.344849,146.408295 474.091705,150.881409 
	C484.217438,156.059662 493.092865,151.299438 499.190521,143.895691 
	C504.003082,138.052322 502.741516,130.335754 496.313782,123.130836 
	C495.537750,122.260963 494.709503,121.437653 493.400452,120.088600 
z" data-index="2" style="opacity: 1;"></path>

<path fill="#F1B33F" opacity="1.000000" stroke="#0F1527" d="
M407.381653,239.583755 
	C396.768616,233.263870 386.539276,226.993744 376.072937,221.147995 
	C373.320526,219.610687 369.855591,218.785645 366.681244,218.673828 
	C357.526489,218.351303 348.352997,218.571594 339.186951,218.548157 
	C337.579468,218.544037 335.972351,218.391937 334.010468,217.265274 
	C337.791168,215.044449 341.533691,212.755402 345.359100,210.614502 
	C362.980164,200.752930 380.868408,191.324661 400.631592,186.592621 
	C408.928375,184.606049 417.669189,184.316589 426.240875,183.756622 
	C428.153168,183.631683 430.787750,185.123703 432.102814,186.696518 
	C456.041016,215.326447 463.531372,248.046677 455.956726,284.404236 
	C455.903717,284.658813 455.614471,284.864136 455.163910,285.438965 
	C443.547974,265.720520 425.978729,252.370132 407.381653,239.583755 
z" data-index="4"></path>
<path fill="#F1B33F" opacity="1.000000" stroke="#0F1527" d="
M382.092010,281.055847 
	C385.057373,275.940155 387.849365,271.146667 390.601532,266.421478 
	C391.399017,266.814606 391.670837,266.883240 391.672760,266.958771 
	C392.382843,295.015320 392.102142,323.112915 381.825745,349.682770 
	C374.336578,369.046173 375.178650,367.729034 354.249847,368.939667 
	C325.009216,370.631134 299.202271,361.529480 276.773956,342.759094 
	C275.285950,341.513763 273.906464,340.138824 271.884796,338.280212 
	C277.902222,337.600006 283.114410,337.246063 288.242645,336.389374 
	C307.886688,333.107727 325.592438,324.626526 343.074921,315.602478 
	C345.881317,314.153839 348.535828,312.394806 351.392944,311.063232 
	C365.031738,304.706787 376.302551,295.962891 382.092010,281.055847 
z" data-index="5" style="opacity: 1;"></path>
<path fill="#F1B33F" opacity="1.000000" stroke="#0F1527" d="
M453.137756,294.191528 
	C440.265106,330.255859 415.250732,353.011322 378.587402,365.363892 
	C381.167236,359.723419 383.468292,355.346893 385.214172,350.759094 
	C391.870911,333.266693 393.846405,314.911255 394.859924,296.399689 
	C394.869049,296.233490 394.874481,296.066803 394.874756,295.900360 
	C394.893738,283.914124 397.173096,271.347565 394.288208,260.106384 
	C391.457977,249.077972 383.373199,239.398956 377.604675,229.122009 
	C377.131226,228.278549 376.735931,227.391220 375.935364,225.783218 
	C378.187286,226.662125 379.899078,227.115067 381.399750,227.948303 
	C402.877075,239.873459 423.478699,253.083069 440.324463,271.221863 
	C445.127258,276.393341 448.730164,282.713806 452.597931,288.691986 
	C453.442352,289.997162 453.066711,292.091705 453.137756,294.191528 
z" data-index="6" style="opacity: 1;"></path>
<path fill="#F1B33F" opacity="1.000000" stroke="#0F1527" d="
M287.579834,272.399475 
	C274.589020,263.249847 262.694305,253.451385 252.412048,241.684158 
	C244.255478,232.349625 242.104935,223.459839 248.338760,211.575241 
	C262.635162,184.319580 283.399384,165.019241 312.332794,154.539001 
	C314.014465,153.929855 315.765991,153.513718 318.364685,152.748825 
	C316.626129,156.362350 315.163757,159.203461 313.871552,162.119949 
	C305.764069,180.418503 303.423096,199.928848 302.340912,219.601318 
	C301.710510,231.060699 301.872589,242.576782 302.078552,254.060165 
	C302.132019,257.044220 303.190704,260.274902 304.644562,262.921631 
	C309.916473,272.519287 315.552490,281.916931 321.051117,291.390045 
	C320.724701,291.827118 320.398285,292.264221 320.071869,292.701294 
	C309.339691,286.002472 298.607513,279.303619 287.579834,272.399475 
z" data-index="7"></path>
<path fill="#F1B33F" opacity="1.000000" stroke="#0F1527" d="
M259.214935,323.788696 
	C239.255768,295.955902 234.567429,265.492401 241.139053,232.730225 
	C241.753342,232.830215 242.247940,232.771271 242.355667,232.948029 
	C256.058258,255.436234 277.020966,269.901489 298.520477,283.758331 
	C302.156708,286.101959 306.144104,287.933014 309.637939,290.459167 
	C319.864258,297.853088 331.201447,300.040192 343.583527,298.950592 
	C349.809326,298.402710 356.123108,298.854950 363.640594,298.854950 
	C361.972290,300.418945 361.320770,301.284668 360.459534,301.799896 
	C338.809296,314.750671 316.599091,326.471008 291.798492,332.311127 
	C288.252747,333.146149 284.562653,333.347412 280.974945,334.029297 
	C271.386719,335.851715 264.053497,332.930115 259.214935,323.788696 
z" data-index="8" style="opacity: 1;"></path>
<path fill="#F1B33F" opacity="1.000000" stroke="#0F1527" d="
M346.019958,148.762299 
	C376.736298,148.058411 402.572266,158.487946 425.230255,179.431671 
	C388.084198,181.503586 357.867737,198.939880 327.974243,217.116028 
	C325.980713,218.328171 324.386200,220.533401 323.153900,222.602905 
	C317.561035,231.995224 312.164734,241.504593 306.285065,251.686417 
	C305.693878,250.280716 305.290009,249.759995 305.279053,249.231171 
	C304.785309,225.362488 305.590454,201.564911 311.953247,178.398239 
	C314.045441,170.780670 317.728363,163.591415 320.799866,156.254852 
	C322.407257,152.415436 325.372314,150.375275 329.623260,150.099625 
	C334.930237,149.755508 340.224731,149.218842 346.019958,148.762299 
z" data-index="9"></path>
<path fill="#0F1527" opacity="1.000000" stroke="#0F1527" d="
M469.309204,282.094971 
	C469.431396,280.944550 469.553589,279.794159 470.031311,278.135986 
	C470.350830,276.781250 470.314819,275.934296 470.278809,275.087341 
	C470.215668,265.638062 470.152588,256.188782 470.315247,246.144058 
	C470.368622,245.035095 470.196198,244.521576 470.023773,244.008041 
	C469.216827,240.513031 468.409851,237.018036 467.696960,232.839645 
	C467.451233,231.433075 467.111450,230.709900 466.771667,229.986725 
	C460.543091,213.759705 453.056793,198.222656 442.126068,184.536896 
	C432.182892,172.087585 421.044464,160.952133 407.220459,151.824097 
	C407.004242,150.386932 407.002167,149.606476 407.000092,148.826019 
	C417.893036,154.115326 427.507446,161.118439 435.597565,170.163910 
	C453.543671,190.229187 466.674347,212.893066 472.674988,239.883972 
	C472.752991,241.326431 473.051666,242.170105 473.350342,243.013763 
	C473.576111,244.407211 473.801880,245.800674 473.779724,247.805939 
	C473.748718,249.282959 473.965607,250.148163 474.182434,251.013367 
	C474.316620,255.716019 474.450806,260.418671 474.159271,265.733093 
	C473.763916,267.878693 473.794220,269.412537 473.824524,270.946381 
	C473.750610,272.373962 473.676666,273.801514 473.209229,275.710693 
	C472.833008,276.780823 472.850281,277.369354 472.867554,277.957916 
	C472.790771,279.061646 472.713989,280.165405 472.233978,281.725525 
	C471.822327,282.767944 471.813904,283.354004 471.805481,283.940033 
	C471.186615,286.757477 470.567749,289.574890 469.558350,292.894318 
	C469.010315,294.233887 468.852783,295.071442 468.695251,295.909027 
	C464.168213,311.854309 456.663361,326.357300 445.392639,338.408539 
	C434.498749,350.056824 422.624664,360.799133 410.988190,371.734070 
	C408.305756,374.254791 404.836365,375.938019 401.729126,378.006683 
	C401.275696,377.511108 400.822235,377.015533 400.368805,376.519958 
	C402.368713,374.432251 404.310516,372.285004 406.378143,370.266663 
	C418.750549,358.189301 431.501862,346.475647 443.432007,333.977478 
	C452.817230,324.145355 459.046722,312.068451 464.703461,299.082458 
	C465.359772,297.839783 465.536346,297.034912 465.712891,296.230011 
	C465.847809,295.618774 465.982758,295.007538 466.500916,293.986572 
	C467.026978,292.749542 467.169830,291.922241 467.312683,291.094971 
	C467.352417,290.608826 467.392120,290.122681 467.868134,289.118103 
	C468.415527,287.793884 468.526611,286.988129 468.637726,286.182343 
	C468.645630,285.621704 468.653534,285.061096 468.996277,284.116272 
	C469.323792,283.186401 469.316498,282.640686 469.309204,282.094971 
z" data-index="10"></path>
<path fill="#0F1527" opacity="1.000000" stroke="#0F1527" d="
M245.986740,401.509216 
	C226.219238,401.736816 206.450699,402.213165 186.684494,402.130676 
	C160.418610,402.021088 134.155197,401.351929 107.889191,401.211426 
	C101.900581,401.179382 96.463760,400.251007 91.284637,397.172241 
	C87.773102,395.084808 83.946251,393.527832 80.069649,391.117920 
	C79.162483,389.954041 78.446068,389.405853 77.729652,388.857666 
	C75.267975,385.213623 72.806305,381.569580 70.791725,377.502808 
	C71.892479,377.028168 72.546135,376.976257 73.199799,376.924377 
	C81.262527,391.064270 94.239456,395.752594 109.618774,396.054382 
	C139.707825,396.644806 169.796600,397.271606 199.881699,398.033325 
	C215.002457,398.416168 230.114899,399.127899 245.612808,400.097595 
	C245.991928,400.839264 245.989334,401.174255 245.986740,401.509216 
z" data-index="11" style="opacity: 1;"></path>
<path fill="#0F1527" opacity="1.000000" stroke="#0F1527" d="
M396.009125,145.916306 
	C377.891083,137.982758 358.975433,134.715027 339.233337,136.046158 
	C323.523102,137.105453 308.371582,140.352921 293.548279,146.417389 
	C292.950500,145.282562 292.860718,144.806915 292.770966,144.331268 
	C311.857147,134.513794 332.111206,130.337204 353.540222,131.477982 
	C368.762512,132.288361 383.008331,136.513290 396.763062,143.635544 
	C396.590485,144.752823 396.299805,145.334564 396.009125,145.916306 
z" data-index="12"></path>
<path fill="#0F1527" opacity="1.000000" stroke="#0F1527" d="
M219.980316,252.418945 
	C220.263428,258.110748 220.417648,264.186432 220.352203,270.606140 
	C220.038849,264.901031 219.945145,258.851929 219.980316,252.418945 
z" data-index="13"></path>
<path fill="#0F1527" opacity="1.000000" stroke="#0F1527" d="
M65.200096,359.403046 
	C66.525688,363.506958 67.714790,368.019073 68.886444,372.960815 
	C67.600525,368.864014 66.332069,364.337646 65.200096,359.403046 
z" data-index="14"></path>
<path fill="#0F1527" opacity="1.000000" stroke="#0F1527" d="
M68.237640,341.663666 
	C67.863861,338.293640 67.606247,334.542358 67.541992,330.445404 
	C67.941505,333.827301 68.147652,337.554840 68.237640,341.663666 
z" data-index="15"></path>
<path fill="#0F1527" opacity="1.000000" stroke="#0F1527" d="
M63.638260,330.416748 
	C64.052887,333.404938 64.338905,336.823547 64.427567,340.578186 
	C63.990028,337.558533 63.749836,334.202850 63.638260,330.416748 
z" data-index="16"></path>
<path fill="#0F1527" opacity="1.000000" stroke="#0F1527" d="
M543.000183,289.377472 
	C543.231018,291.819305 543.319092,294.610016 543.171387,297.709106 
	C542.909485,295.253754 542.883423,292.490082 543.000183,289.377472 
z" data-index="17"></path>
<path fill="#0F1527" opacity="1.000000" stroke="#0F1527" d="
M171.399719,120.319901 
	C173.747971,119.927895 176.509674,119.654648 179.592255,119.573997 
	C177.213135,119.990616 174.513168,120.214638 171.399719,120.319901 
z" data-index="18"></path>
<path fill="#0F1527" opacity="1.000000" stroke="#0F1527" d="
M396.236084,146.170929 
	C396.299805,145.334564 396.590485,144.752823 397.002258,143.869217 
	C399.060028,144.463699 400.996674,145.360062 402.891479,146.741089 
	C402.566803,147.815720 402.284058,148.405685 402.001282,148.995667 
	C400.155212,148.138977 398.309113,147.282272 396.236084,146.170929 
z" data-index="19"></path>
<path fill="#0F1527" opacity="1.000000" stroke="#0F1527" d="
M123.375717,121.279388 
	C125.104820,120.927864 127.223427,120.673378 129.634537,120.612350 
	C127.873108,120.996010 125.819160,121.186218 123.375717,121.279388 
z" data-index="20"></path>
<path fill="#0F1527" opacity="1.000000" stroke="#0F1527" d="
M133.641083,86.754311 
	C132.225693,87.101997 130.437958,87.355118 128.371246,87.428543 
	C129.817749,87.052475 131.543243,86.856110 133.641083,86.754311 
z" data-index="21"></path>
<path fill="#0F1527" opacity="1.000000" stroke="#0F1527" d="
M542.001587,324.337616 
	C542.227600,325.838440 542.316589,327.649597 542.182983,329.735718 
	C541.928528,328.223083 541.896545,326.435547 542.001587,324.337616 
z" data-index="22"></path>
<path fill="#0F1527" opacity="1.000000" stroke="#0F1527" d="
M73.165222,376.576996 
	C72.546135,376.976257 71.892479,377.028168 70.748993,377.124634 
	C69.893631,376.446289 69.528099,375.723389 69.176338,374.691772 
	C69.829315,374.064270 70.468521,373.745483 71.422012,373.256836 
	C72.201073,374.134521 72.665863,375.182068 73.165222,376.576996 
z" data-index="23"></path>
<path fill="#0F1527" opacity="1.000000" stroke="#0F1527" d="
M440.344360,403.943054 
	C441.528534,403.727814 443.001007,403.633575 444.730743,403.754486 
	C443.536224,404.001099 442.084412,404.032562 440.344360,403.943054 
z" data-index="24"></path>
<path fill="#0F1527" opacity="1.000000" stroke="#0F1527" d="
M64.643021,349.335449 
	C65.027657,350.455383 65.310341,351.925049 65.415131,353.653107 
	C65.005180,352.502716 64.773132,351.093933 64.643021,349.335449 
z" data-index="25"></path>
<path fill="#0F1527" opacity="1.000000" stroke="#0F1527" d="
M470.305542,404.076019 
	C471.466187,403.799011 472.926147,403.616577 474.659485,403.627747 
	C473.490234,403.937744 472.047516,404.054169 470.305542,404.076019 
z" data-index="26"></path>
<path fill="#0F1527" opacity="1.000000" stroke="#0F1527" d="
M473.965027,270.616425 
	C473.794220,269.412537 473.763916,267.878693 473.977478,266.166748 
	C474.182739,267.421265 474.144104,268.853882 473.965027,270.616425 
z" data-index="27"></path>
<path fill="#0F1527" opacity="1.000000" stroke="#0F1527" d="
M69.247940,358.663940 
	C68.898315,357.546783 68.643631,356.079895 68.561264,354.356384 
	C68.936691,355.504547 69.139793,356.909363 69.247940,358.663940 
z" data-index="28"></path>
<path fill="#0F1527" opacity="1.000000" stroke="#0F1527" d="
M199.663254,115.814178 
	C198.550552,116.151474 197.089020,116.393173 195.370392,116.469742 
	C196.513687,116.109276 197.914047,115.913925 199.663254,115.814178 
z" data-index="29"></path>
<path fill="#0F1527" opacity="1.000000" stroke="#0F1527" d="
M246.308517,401.621887 
	C245.989334,401.174255 245.991928,400.839264 245.997253,400.253052 
	C247.310837,400.001770 248.621689,400.001770 249.932556,400.001770 
	C249.979904,400.275574 250.027267,400.549347 250.074615,400.823151 
	C248.926514,401.126953 247.778397,401.430786 246.308517,401.621887 
z" data-index="30"></path>
<path fill="#0F1527" opacity="1.000000" stroke="#0F1527" d="
M229.940796,221.662643 
	C230.098221,220.372330 230.457901,218.823822 231.061981,217.131638 
	C230.918610,218.460114 230.530838,219.932281 229.940796,221.662643 
z" data-index="31"></path>
<path fill="#0F1527" opacity="1.000000" stroke="#0F1527" d="
M179.621246,87.100235 
	C178.715973,87.263557 177.512451,87.266632 176.148880,87.042175 
	C177.100220,86.856415 178.211609,86.898209 179.621246,87.100235 
z" data-index="32"></path>
<path fill="#0F1527" opacity="1.000000" stroke="#0F1527" d="
M124.904434,115.497757 
	C125.594002,115.639435 126.520607,116.157768 127.447205,116.676117 
	C126.868149,117.030220 126.289085,117.384331 125.456589,117.621445 
	C125.182579,116.961105 125.162025,116.417755 124.904434,115.497757 
z" data-index="33"></path>
<path fill="#0F1527" opacity="1.000000" stroke="#0F1527" d="
M194.311340,119.232254 
	C195.145508,118.904335 196.304413,118.667908 197.690277,118.605713 
	C196.823517,118.961205 195.729797,119.142479 194.311340,119.232254 
z" data-index="34"></path>
<path fill="#0F1527" opacity="1.000000" stroke="#0F1527" d="
M292.490295,144.352600 
	C292.860718,144.806915 292.950500,145.282562 293.168915,146.472809 
	C292.483276,147.671082 291.669006,148.154755 290.563385,148.664673 
	C290.207642,148.223938 290.143188,147.756927 289.995880,146.587662 
	C290.678528,145.381561 291.444061,144.877747 292.490295,144.352600 
z" data-index="35"></path>
<path fill="#0F1527FF" opacity="1.000000" stroke="#0F1527" d="
M402.200409,149.265472 
	C402.284058,148.405685 402.566803,147.815720 403.114410,147.022919 
	C403.837006,146.991959 404.294769,147.163803 404.864929,148.034698 
	C404.922852,149.374405 404.868439,150.015091 404.814026,150.655762 
	C404.009186,150.282257 403.204376,149.908768 402.200409,149.265472 
z" data-index="36"></path>
<path fill="#0F1527" opacity="1.000000" stroke="#0F1527" d="
M404.984558,150.856445 
	C404.868439,150.015091 404.922852,149.374405 404.993225,148.251434 
	C405.551971,147.965897 406.094788,148.162659 406.818848,148.592712 
	C407.002167,149.606476 407.004242,150.386932 407.011749,151.557495 
	C406.396515,151.650787 405.775787,151.353973 404.984558,150.856445 
z" data-index="37"></path>
<path fill="#0F1527" opacity="1.000000" stroke="#0F1527" d="
M70.331146,366.717407 
	C69.977066,366.175140 69.699440,365.335571 69.582237,364.295471 
	C69.964302,364.870026 70.185951,365.645050 70.331146,366.717407 
z" data-index="38"></path>
<path fill="#0F1527" opacity="1.000000" stroke="#0F1527" d="
M198.475983,101.524979 
	C198.221100,100.613380 198.193436,99.479172 198.229660,97.780045 
	C198.430115,98.577538 198.566666,99.939957 198.475983,101.524979 
z" data-index="39"></path>
<path fill="#0F1527" opacity="1.000000" stroke="#0F1527" d="
M540.986206,351.247070 
	C541.212585,351.880859 541.307556,352.738647 541.204590,353.797302 
	C540.956055,353.155853 540.905518,352.313446 540.986206,351.247070 
z" data-index="40"></path>
<path fill="#0F1527" opacity="1.000000" stroke="#0F1527" d="
M206.721558,114.804993 
	C206.172913,115.131752 205.333664,115.363693 204.299713,115.441086 
	C204.880310,115.094414 205.655640,114.902298 206.721558,114.804993 
z" data-index="41"></path>
<path fill="#0F1527" opacity="1.000000" stroke="#0F1527" d="
M221.635651,285.283813 
	C221.987518,285.832214 222.264694,286.678619 222.373993,287.724731 
	C221.991058,287.143555 221.775986,286.362671 221.635651,285.283813 
z" data-index="42"></path>
<path fill="#0F1527" opacity="1.000000" stroke="#0F1527" d="
M470.132751,275.295654 
	C470.314819,275.934296 470.350830,276.781250 470.181000,277.819061 
	C469.979004,277.174591 469.982849,276.339294 470.132751,275.295654 
z" data-index="43"></path>
<path fill="#0F1527" opacity="1.000000" stroke="#0F1527" d="
M223.904480,253.712982 
	C223.714035,253.075867 223.664688,252.225952 223.821655,251.182434 
	C224.033844,251.825943 224.039703,252.663055 223.904480,253.712982 
z" data-index="44"></path>
<path fill="#0F1527" opacity="1.000000" stroke="#0F1527" d="
M474.290894,250.722961 
	C473.965607,250.148163 473.748718,249.282959 473.712677,248.229218 
	C474.062103,248.837967 474.230682,249.635269 474.290894,250.722961 
z" data-index="45"></path>
<path fill="#0F1527" opacity="1.000000" stroke="#0F1527" d="
M221.042725,241.327972 
	C221.200043,241.953796 221.210495,242.850281 221.001556,243.879364 
	C220.820068,243.207520 220.857971,242.403076 221.042725,241.327972 
z" data-index="46"></path>
<path fill="#0F1527" opacity="1.000000" stroke="#0F1527" d="
M473.413208,242.713104 
	C473.051666,242.170105 472.752991,241.326431 472.622009,240.279633 
	C473.018494,240.855148 473.247284,241.633789 473.413208,242.713104 
z" data-index="47"></path>
<path fill="#0F1527" opacity="1.000000" stroke="#0F1527" d="
M541.819336,199.217529 
	C542.132751,199.833450 542.325195,200.680176 542.334778,201.744720 
	C542.000793,201.124466 541.849609,200.286392 541.819336,199.217529 
z" data-index="48"></path>
<path fill="#0F1527" opacity="1.000000" stroke="#0F1527" d="
M542.819580,214.216507 
	C543.140564,214.834976 543.332886,215.681747 543.340820,216.744888 
	C543.001221,216.122452 542.846008,215.283630 542.819580,214.216507 
z" data-index="49"></path>
<path fill="#0F1527" opacity="1.000000" stroke="#0F1527" d="
M110.767281,117.782806 
	C110.018410,118.181946 108.995560,118.477333 107.556946,118.682434 
	C108.258553,118.287781 109.375923,117.983421 110.767281,117.782806 
z" data-index="50"></path>
<path fill="#0F1527" opacity="1.000000" stroke="#0F1527" d="
M222.061279,235.332733 
	C222.187256,235.967041 222.161087,236.869415 221.903625,237.892151 
	C221.751266,237.208633 221.830200,236.404709 222.061279,235.332733 
z" data-index="51"></path>
<path fill="#0F1527" opacity="1.000000" stroke="#0F1527" d="
M206.279633,118.238937 
	C206.826599,117.904938 207.666885,117.659111 208.703445,117.570480 
	C208.124146,117.927483 207.348541,118.127296 206.279633,118.238937 
z" data-index="52"></path>
<path fill="#0F1527" opacity="1.000000" stroke="#0F1527" d="
M468.891937,295.674011 
	C468.852783,295.071442 469.010315,294.233887 469.358337,293.236572 
	C469.395416,293.864197 469.242035,294.651611 468.891937,295.674011 
z" data-index="53"></path>
<path fill="#0F1527" opacity="1.000000" stroke="#0F1527" d="
M77.607239,389.141418 
	C78.446068,389.405853 79.162483,389.954041 79.925339,390.790100 
	C79.142807,390.527069 78.313820,389.976105 77.607239,389.141418 
z" data-index="54"></path>
<path fill="#0F1527" opacity="1.000000" stroke="#0F1527" d="
M467.121277,291.328186 
	C467.169830,291.922241 467.026978,292.749542 466.702637,293.739380 
	C466.657379,293.121765 466.793579,292.341583 467.121277,291.328186 
z" data-index="55"></path>
<path fill="#0F1527" opacity="1.000000" stroke="#0F1527" d="
M112.234390,122.205505 
	C112.538109,121.925240 113.088058,121.724022 113.785164,121.669266 
	C113.448418,121.972008 112.964523,122.128281 112.234390,122.205505 
z" data-index="56"></path>
<path fill="#0F1527" opacity="1.000000" stroke="#0F1527" d="
M465.493103,296.447968 
	C465.536346,297.034912 465.359772,297.839783 464.920166,298.828125 
	C464.862488,298.229675 465.067871,297.447815 465.493103,296.447968 
z" data-index="57"></path>
<path fill="#0F1527" opacity="1.000000" stroke="#0F1527" d="
M225.680176,302.244812 
	C226.011688,302.509186 226.292053,303.032501 226.446930,303.720764 
	C226.090622,303.425049 225.859818,302.964386 225.680176,302.244812 
z" data-index="58"></path>
<path fill="#0F1527" opacity="1.000000" stroke="#0F1527" d="
M213.756165,113.638733 
	C213.467392,113.955963 212.920624,114.209877 212.217712,114.314224 
	C212.540421,113.968246 213.019287,113.771835 213.756165,113.638733 
z" data-index="59"></path>
<path fill="#0F1527" opacity="1.000000" stroke="#0F1527" d="
M217.751373,112.583176 
	C217.478439,112.917023 216.943161,113.208145 216.243271,113.357529 
	C216.548782,112.990677 217.018890,112.765572 217.751373,112.583176 
z" data-index="60"></path>
<path fill="#0F1527" opacity="1.000000" stroke="#0F1527" d="
M225.841263,238.759003 
	C225.682419,238.357590 225.677444,237.811203 225.857147,237.124176 
	C226.026260,237.527023 226.010696,238.070526 225.841263,238.759003 
z" data-index="61"></path>
<path fill="#0F1527" opacity="1.000000" stroke="#0F1527" d="
M105.241730,123.342964 
	C105.542877,123.049721 106.099991,122.815788 106.809067,122.739395 
	C106.473236,123.065392 105.985466,123.233833 105.241730,123.342964 
z" data-index="62"></path>
<path fill="#0F1527" opacity="1.000000" stroke="#0F1527" d="
M185.721954,88.074188 
	C185.345886,88.234932 184.767288,88.226067 184.089020,88.034271 
	C184.499359,87.869087 185.009399,87.886826 185.721954,88.074188 
z" data-index="63"></path>
<path fill="#0F1527" opacity="1.000000" stroke="#0F1527" d="
M124.758255,87.707634 
	C124.481262,88.021088 123.948250,88.279251 123.256149,88.402870 
	C123.565453,88.063004 124.033844,87.857666 124.758255,87.707634 
z" data-index="64"></path>
<path fill="#0F1527" opacity="1.000000" stroke="#0F1527" d="
M469.928589,244.191498 
	C470.196198,244.521576 470.368622,245.035095 470.400330,245.727081 
	C470.117554,245.395340 469.975494,244.885147 469.928589,244.191498 
z" data-index="65"></path>
<path fill="#0F1527" opacity="1.000000" stroke="#0F1527" d="
M223.694870,295.241516 
	C224.012878,295.522736 224.266205,296.059265 224.381836,296.753876 
	C224.039505,296.440247 223.834839,295.968567 223.694870,295.241516 
z" data-index="66"></path>
<path fill="#0F1527" opacity="1.000000" stroke="#0F1527" d="
M227.252319,294.709900 
	C226.875748,294.291229 226.539688,293.569214 226.255997,292.527893 
	C226.636505,292.941193 226.964661,293.673889 227.252319,294.709900 
z" data-index="67"></path>
<path fill="#0F1527" opacity="1.000000" stroke="#0F1527" d="
M217.239090,116.172668 
	C217.507828,115.866211 218.027435,115.624565 218.705383,115.499886 
	C218.405792,115.823730 217.947876,116.030609 217.239090,116.172668 
z" data-index="68"></path>
<path fill="#0F1527" opacity="1.000000" stroke="#0F1527" d="
M468.430206,286.409424 
	C468.526611,286.988129 468.415527,287.793884 468.065369,288.804749 
	C467.958435,288.218719 468.090576,287.427643 468.430206,286.409424 
z" data-index="69"></path>
<path fill="#0F1527" opacity="1.000000" stroke="#0F1527" d="
M224.894455,244.770386 
	C224.717453,244.375549 224.687119,243.829575 224.838654,243.137756 
	C225.027390,243.534363 225.034256,244.076797 224.894455,244.770386 
z" data-index="70"></path>
<path fill="#0F1527" opacity="1.000000" stroke="#0F1527" d="
M471.967651,283.731079 
	C471.813904,283.354004 471.822327,282.767944 472.021179,282.085022 
	C472.184357,282.499481 472.157043,283.010834 471.967651,283.731079 
z" data-index="71"></path>
<path fill="#0F1527" opacity="1.000000" stroke="#0F1527" d="
M469.153748,282.238953 
	C469.316498,282.640686 469.323792,283.186401 469.147156,283.873291 
	C468.974945,283.470642 468.986603,282.926819 469.153748,282.238953 
z" data-index="72"></path>
<path fill="#0F1527" opacity="1.000000" stroke="#0F1527" d="
M220.774094,279.233154 
	C221.058060,279.547241 221.245850,280.105865 221.279800,280.808655 
	C220.976608,280.461121 220.827271,279.969421 220.774094,279.233154 
z" data-index="73"></path>
<path fill="#0F1527" opacity="1.000000" stroke="#0F1527" d="
M224.073288,278.808960 
	C223.812973,278.473633 223.647903,277.954681 223.628845,277.259033 
	C223.906067,277.596649 224.037308,278.110992 224.073288,278.808960 
z" data-index="74"></path>
<path fill="#0F1527" opacity="1.000000" stroke="#0F1527" d="
M473.020020,277.741699 
	C472.850281,277.369354 472.833008,276.780823 473.005615,276.090515 
	C473.187775,276.501007 473.180145,277.013214 473.020020,277.741699 
z" data-index="75"></path>
<path fill="#0F1527" opacity="1.000000" stroke="#0F1527" d="
M104.777664,118.866974 
	C104.341194,119.218132 103.660408,119.498589 102.598892,119.746300 
	C102.989891,119.407799 103.761612,119.102036 104.777664,118.866974 
z" data-index="76"></path>
<path fill="#0F1527" opacity="1.000000" stroke="#0F1527" d="
M182.700684,116.092789 
	C182.310303,116.183784 181.699554,116.115906 180.984222,115.849648 
	C181.413177,115.745483 181.946747,115.839699 182.700684,116.092789 
z" data-index="77"></path>
<path fill="#0F1527" opacity="1.000000" stroke="#0F1527" d="
M466.734253,230.290894 
	C467.111450,230.709900 467.451233,231.433075 467.736847,232.476929 
	C467.354095,232.063400 467.025482,231.329224 466.734253,230.290894 
z" data-index="78"></path>
<path fill="#0F1527" opacity="1.000000" stroke="#0F1527" d="
M226.599503,234.601288 
	C226.475418,234.031158 226.550735,233.229355 226.849228,232.211029 
	C226.981247,232.786224 226.890076,233.577911 226.599503,234.601288 
z" data-index="79"></path>
<path fill="#0F1527" opacity="1.000000" stroke="#0F1527" d="
M64.154343,237.465027 
	C64.298203,248.235718 64.316162,259.385864 64.062515,270.773376 
	C63.870090,259.955353 63.949268,248.899918 64.154343,237.465027 
z" data-index="80"></path>
<path fill="#0F1527" opacity="1.000000" stroke="#0F1527" d="
M65.158302,209.460434 
	C65.308144,212.578217 65.318825,216.064636 65.064392,219.780960 
	C64.872566,216.616928 64.945862,213.223007 65.158302,209.460434 
z" data-index="81"></path>
<path fill="#0F1527" opacity="1.000000" stroke="#0F1527" d="
M66.180412,194.438705 
	C66.331718,195.939819 66.331039,197.777023 66.092911,199.811920 
	C65.913109,198.264679 65.970772,196.519745 66.180412,194.438705 
z" data-index="82"></path>
<path fill="#0F1527" opacity="1.000000" stroke="#0F1527" d="
M67.168808,185.395721 
	C67.319366,186.299210 67.303841,187.494553 67.065994,188.850159 
	C66.896690,187.902802 66.949707,186.795166 67.168808,185.395721 
z" data-index="83"></path>
<path fill="#0F1527" opacity="1.000000" stroke="#0F1527" d="
M68.411568,177.441681 
	C68.541946,178.296036 68.463951,179.417114 68.140305,180.773346 
	C67.997498,179.908478 68.100349,178.808441 68.411568,177.441681 
z" data-index="84"></path>
<path fill="#0F1527" opacity="1.000000" stroke="#0F1527" d="
M70.617004,167.474579 
	C70.688065,168.007172 70.577087,168.711853 70.247101,169.702759 
	C70.163719,169.208191 70.299339,168.427429 70.617004,167.474579 
z" data-index="85"></path>
<path fill="#0F1527" opacity="1.000000" stroke="#0F1527" d="
M72.608871,160.485382 
	C72.661972,161.036331 72.521713,161.754227 72.142685,162.755585 
	C72.074440,162.243469 72.244972,161.447876 72.608871,160.485382 
z" data-index="86"></path>
<path fill="#0F1527" opacity="1.000000" stroke="#0F1527" d="
M69.440002,172.343002 
	C69.558601,172.913345 69.484993,173.662781 69.179558,174.716736 
	C69.047752,174.188187 69.147766,173.355148 69.440002,172.343002 
z" data-index="87"></path>

<path fill="#292927" opacity="1.000000" stroke="#0F1527" d="
M493.652954,120.340683 
	C494.709503,121.437653 495.537750,122.260963 496.313782,123.130836 
	C502.741516,130.335754 504.003082,138.052322 499.190521,143.895691 
	C493.092865,151.299438 484.217438,156.059662 474.091705,150.881409 
	C465.344849,146.408295 461.034576,138.829620 463.030029,130.233566 
	C464.921265,122.086418 474.852570,113.332581 483.015228,114.095322 
	C486.632050,114.433281 489.947937,117.991943 493.652954,120.340683 
z" data-index="89" style="opacity: 1; stroke-width: 2px; stroke: rgb(13, 153, 255); visibility: hidden;"></path>
<path fill="#0F1527" opacity="1.000000" stroke="#0F1527" d="
M66.838501,243.290649 
	C67.176796,259.725952 67.253693,276.488373 67.218842,293.643127 
	C66.740852,292.801300 66.061852,291.568634 66.056038,290.332794 
	C65.986656,275.560028 66.008636,260.786804 66.045349,246.013794 
	C66.047340,245.214691 66.391968,244.416443 66.838501,243.290649 
z" data-index="90"></path>
<path fill="#0F1527" opacity="1.000000" stroke="#0F1527" d="
M67.882309,215.237946 
	C68.093681,217.383682 68.051468,219.817871 67.864349,222.585373 
	C67.689209,220.454590 67.658966,217.990494 67.882309,215.237946 
z" data-index="91"></path>
<path fill="#0F1527" opacity="1.000000" stroke="#0F1527" d="
M146.175735,115.042862 
	C147.718231,114.736931 149.450394,114.671753 151.599335,114.732117 
	C150.132538,114.999641 148.248962,115.141632 146.175735,115.042862 
z" data-index="92"></path>
<path fill="#0F1527" opacity="1.000000" stroke="#0F1527" d="
M68.896233,201.174850 
	C69.091827,202.416641 69.058701,203.845917 68.874054,205.597900 
	C68.704178,204.401184 68.685844,202.881760 68.896233,201.174850 
z" data-index="93"></path>
<path fill="#0F1527" opacity="1.000000" stroke="#0F1527" d="
M162.805588,89.877380 
	C161.865585,90.173813 160.690735,90.237335 159.255737,90.157394 
	C160.187302,89.890778 161.379028,89.767624 162.805588,89.877380 
z" data-index="94"></path>
<path fill="#0F1527" opacity="1.000000" stroke="#0F1527" d="
M69.932701,191.128021 
	C70.132675,191.794876 70.122650,192.602692 69.955811,193.676270 
	C69.773560,193.050995 69.748131,192.160004 69.932701,191.128021 
z" data-index="95"></path>
<path fill="#0F1527" opacity="1.000000" stroke="#0F1527" d="
M138.797302,89.759888 
	C138.180649,90.082520 137.378922,90.216599 136.279968,90.261551 
	C136.859238,89.972069 137.735718,89.771713 138.797302,89.759888 
z" data-index="96"></path>
<path fill="#0F1527" opacity="1.000000" stroke="#0F1527" d="
M70.951332,183.123169 
	C71.129913,183.791428 71.096931,184.596375 70.907570,185.665924 
	C70.747375,185.040298 70.743568,184.150070 70.951332,183.123169 
z" data-index="97"></path>
<path fill="#0F1527" opacity="1.000000" stroke="#0F1527" d="
M72.105232,176.106140 
	C72.256172,176.792953 72.175247,177.600143 71.935257,178.672699 
	C71.808594,178.034210 71.840973,177.130371 72.105232,176.106140 
z" data-index="98"></path>
<path fill="#0F1527" opacity="1.000000" stroke="#0F1527" d="
M163.175491,114.243690 
	C163.521255,113.926872 164.014725,113.770638 164.762390,113.693016 
	C164.452133,113.982513 163.887650,114.193390 163.175491,114.243690 
z" data-index="99"></path>
<path fill="#0F1527" opacity="1.000000" stroke="#0F1527" d="
M137.093781,113.992188 
	C137.506531,113.785469 138.025970,113.769577 138.762634,113.909973 
	C138.386719,114.105186 137.793594,114.144104 137.093781,113.992188 
z" data-index="100"></path>
<path fill="#0F1527" opacity="1.000000" stroke="#0F1527" d="
M73.092987,171.079163 
	C73.250214,171.501648 73.208481,172.017380 73.004997,172.744492 
	C72.860168,172.361389 72.877098,171.766907 73.092987,171.079163 
z" data-index="101"></path>
</svg>